# xmcd
#
# Track frame offsets:
#	187
#	1887
#	16907
#	57922
#	83712
#	93090
#	108217
#
# Disc length: 1784 seconds
#
# Revision: 1
# Processed by: cddbd v1.5.1PL0 Copyright (c) Steve Scherf et al.
# Submitted via: CDex 1.50Beta5
#
DISCID=3e06f607
DTITLE=川澄綾子 - リトルラバーズ シーソーゲーム Little Love Letters THIRD MAIL 緑ヶ丘
DYEAR=1999
DGENRE=Game
TTITLE0=川澄綾子/あなたが打ったホームラン 青い空に吸い込まれそうに翔んでいった…
TTITLE1=桜井ゆきえ/みんながいれば…ね!
TTITLE2=鈴村健一/THIRD DRAMA YUKIE
TTITLE3=桜井ゆきえ/MY OWN DESTINY
TTITLE4=川澄綾子/YUKIE’S LOVE LETTER
TTITLE5=みんながいれば…ね!
TTITLE6=MY OWN DESTINY
EXTD=
EXTT0=
EXTT1=
EXTT2=
EXTT3=
EXTT4=
EXTT5=
EXTT6=
PLAYORDER=
